Vladimir (Miniserie) [NF WEB-DL 1080p] [CASTELLANO+SUBS][21GB][08/08][MEGA]


[url=https://postimg.cc/F7ZjgNDJ][img]https://i.postimg.cc/jSVZTjfv/698506419a288.png[/img][/url]




Ficha Técnica  
TÍTULO: Vladimir  
TÍTULO ORIGINAL: Vladimir  
CAPÍTULOS: 8
AÑO: 2026  
DURACIÓN: Aprox. 30 minutos por episodio (8 episodios en total, limited series)  
PAÍS: Estados Unidos  
DIRECTOR: Varios (incluyendo Shari Springer Berman, Robert Pulcini, Francesca Gregorini, Josephine Bornebusch, entre otros)  
GUIÓN: Julia May Jonas (creadora y guionista principal, adaptación de su propia novela)  
FOTOGRAFÍA: No especificado prominentemente en fuentes principales (créditos completos varían por episodio)  
REPARTO: Rachel Weisz, Leo Woodall, John Slattery, Jessica Henwick, Kayli Carter, Ellen Robertson, Matt Walsh (entre otros)  
PRODUCTORA: Netflix (distribuida como original de Netflix)  
GÉNERO: Comedia dramática (Comedy-Drama), Drama, Comedia erótica, con elementos de sátira y obsesión  

Sinopsis  
Una profesora de literatura inglesa de mediana edad ve su vida desmoronarse cuando desarrolla una obsesión intensa y erótica por su nuevo y atractivo colega, Vladimir. Lo que comienza como una fijación fantasiosa evoluciona hacia un torbellino de seducción, deseo prohibido y caos en su matrimonio y carrera, con toques de humor negro y una narrativa irreverente que rompe la cuarta pared, explorando temas como el envejecimiento, la infidelidad y las normas sexuales cambiantes.




Datos Del Ripeo

Ripeo Por: MattDrayton
Fuente del audio: NF
Versión: NF WEB-DL 1080p (Sin Logos ni publicidad)
Servidores: Mega





Datos del Video
Formato: Matroska
Video: High@L4 | 1920x960 @ 6 266 kb/s
Framerate: 25.000
Resolución: 1920x1080
Audio: Castellano AC3 256Kbps 2 canales
Subtitulos: SI


[SPOILER]

MediaInfo:

Video
ID : 1
Format : AVC
Format/Info : Advanced Video Codec
Format profile : High@L4
Format settings : CABAC / 4 Ref Frames
Format settings, CABAC : Yes
Format settings, Reference : 4 frames
Codec ID : V_MPEG4/ISO/AVC
Duration : 43 min 49 s
Bit rate mode : Constant
Bit rate : 6 151 kb/s
Nominal bit rate : 10 000 kb/s
Width : 1 920 pixels
Height : 960 pixels
Display aspect ratio : 2.000
Frame rate mode : Constant
Frame rate : 23.976 (24000/1001) FPS
Color space : YUV
Chroma subsampling : 4:2:0
Bit depth : 8 bits
Scan type : Progressive
Bits/(Pixel*Frame) : 0.139
Stream size : 1.88 GiB (91%)
Default : Yes
Forced : No
Color range : Limited
Color primaries : BT.709
Transfer characteristics : BT.709
Matrix coefficients : BT.709



Audio
Format : AC-3
Format/Info : Audio Coding 3
Commercial name : Dolby Digital
Bit rate mode : Constant
Bit rate : 256 kb/s
Channel(s) : 2 channels
Channel layout : L R
Sampling rate : 48.0 kHz
Frame rate : 31.250 FPS (1536 SPF)
Compression mode : Lossy
Stream size : 80.7 MiB (100%)
Service kind : Complete Main

[/SPOILER]




[Hide]
[code]


1x01 Episodio 1

Proximamente...

1x02 Episodio 2

Proximamente...

1x03 Episodio 3

Proximamente...

1x04 Episodio 4

Proximamente...

1x05 Episodio 5

Proximamente...

1x06 Episodio 6

Proximamente...

1x07 Episodio 7

Proximamente...

1x08 Episodio 8

Proximamente...

[/code]
[/Hide]